<svg width="24" height="24" viewBox="0 0 24 24" fill="none" xmlns="http://www.w3.org/2000/svg">
<g clip-path="url(#clip0_9_1066)">
<path d="M12.184 0.00199265C11.546 -0.00800736 10.895 0.0239926 10.459 0.101993C8.601 0.423993 7.035 1.21199 5.739 2.47799C4.405 3.78099 3.581 5.29999 3.181 7.19299L3.042 7.83699L3.008 24C3.299 24.008 3.599 23.96 3.85 23.94C6.198 23.653 8.194 22.231 9.281 20.074C9.556 19.524 9.753 18.892 9.891 18.104C10.004 17.434 10.011 17.212 9.992 13.723L9.975 10.049L10.117 9.69199C10.314 9.20199 10.86 8.65699 11.349 8.45899L11.707 8.31699L15.053 8.31099C16.893 8.31099 18.507 8.28599 18.633 8.26199C19.218 8.14899 19.844 7.65899 20.095 7.11599C20.167 6.96599 20.263 6.67399 20.305 6.47699C20.37 6.14799 20.365 6.05799 20.269 5.68799C19.971 4.58799 18.919 3.06499 17.844 2.17399C16.624 1.16299 15.28 0.489993 13.828 0.147993C13.446 0.0619926 12.821 0.0109926 12.183 0.00199265H12.184ZM20.72 6.80199C20.67 6.98199 20.622 7.16899 20.548 7.32399C20.3763 7.68754 20.1222 8.00606 19.806 8.25429C19.4897 8.50251 19.1199 8.67361 18.726 8.75399C15.053 8.80999 16.187 8.80899 15.053 8.80999L11.805 8.81599L11.535 8.92299C11.222 9.04899 10.708 9.56299 10.582 9.87599L10.475 10.144L10.492 13.72C10.507 16.609 10.499 17.302 10.432 17.845C10.9496 17.9371 11.4743 17.9836 12 17.984C13.1808 17.984 14.3501 17.7514 15.4411 17.2995C16.532 16.8476 17.5233 16.1853 18.3583 15.3503C19.1933 14.5153 19.8556 13.524 20.3075 12.4331C20.7594 11.3421 20.992 10.1728 20.992 8.99199C20.9916 8.25359 20.9002 7.51806 20.72 6.80199Z" fill="#808080"/>
</g>
<defs>
<clipPath id="clip0_9_1066">
<rect width="24" height="24" fill="white"/>
</clipPath>
</defs>
</svg>
