<svg width="24" height="24" viewBox="0 0 24 24" fill="none" xmlns="http://www.w3.org/2000/svg">
<g clip-path="url(#clip0_9_1068)">
<path fill-rule="evenodd" clip-rule="evenodd" d="M5 3C4.46957 3 3.96086 3.21071 3.58579 3.58579C3.21071 3.96086 3 4.46957 3 5V19C3 19.5304 3.21071 20.0391 3.58579 20.4142C3.96086 20.7893 4.46957 21 5 21H19C19.5304 21 20.0391 20.7893 20.4142 20.4142C20.7893 20.0391 21 19.5304 21 19V5C21 4.46957 20.7893 3.96086 20.4142 3.58579C20.0391 3.21071 19.5304 3 19 3H5ZM15.466 7.741C15.188 6.815 13.893 6.771 13.553 7.677L11.555 13.004L10.456 9.707C10.172 8.853 8.997 8.77 8.595 9.574L7.382 12H7C6.73478 12 6.48043 12.1054 6.29289 12.2929C6.10536 12.4804 6 12.7348 6 13C6 13.2652 6.10536 13.5196 6.29289 13.7071C6.48043 13.8946 6.73478 14 7 14H7.994C8.376 14 8.726 13.784 8.897 13.442L9.315 12.607L10.542 16.289C10.843 17.192 12.112 17.216 12.446 16.325L14.395 11.129L15.04 13.28C15.168 13.708 15.561 14 16.007 14H17C17.2652 14 17.5196 13.8946 17.7071 13.7071C17.8946 13.5196 18 13.2652 18 13C18 12.7348 17.8946 12.4804 17.7071 12.2929C17.5196 12.1054 17.2652 12 17 12H16.744L15.466 7.741Z" fill="#7A7A7A"/>
</g>
<defs>
<clipPath id="clip0_9_1068">
<rect width="24" height="24" fill="white"/>
</clipPath>
</defs>
</svg>
